<svg xmlns="http://www.w3.org/2000/svg" viewBox="0 0 349.55 64.67"><defs><style>.cls-1{fill:#fff;}</style></defs><g id="Layer_2" data-name="Layer 2"><g id="레이어_1" data-name="레이어 1"><path class="cls-1" d="M19,47.71A38.51,38.51,0,0,1,9,49.57c-5.36,0-9-3.56-9-9.08V19.07C0,13.55,3.65,10,9,10a38.13,38.13,0,0,1,10,1.87,15.48,15.48,0,0,1,5.44,2.59V10.79H28V55.58c0,5.52-3.65,9.09-9,9.09H3.16V61.42H18.5c3.89,0,5.92-2.11,5.92-6V45.11A15.31,15.31,0,0,1,19,47.71Zm5.44-26.29c0-3.49-2.27-5.11-5.92-6.25a38,38,0,0,0-9-1.86c-3.89,0-5.92,2.11-5.92,6V40.25c0,3.89,2,6,5.92,6a37.59,37.59,0,0,0,9-1.87c3.65-1.13,5.92-2.76,5.92-6.25Z"/><path class="cls-1" d="M68.64,13.31c-2.68,1.3-5,2.51-7.38,3.89-3.33,1.95-5.92,3.81-5.92,7.3V49.25H51.76V10.79h3.58V17.2a62.55,62.55,0,0,1,13-7.22Z"/><path class="cls-1" d="M88.32,32v8c0,3.9,2,6,5.92,6h9.25c3.9,0,5.93-2.1,5.93-6v-1h3.48v1.25c0,5.52-3.65,9.09-9,9.09H93.76c-5.36,0-9-3.57-9-9.09V19.88c0-5.52,3.65-9.09,9-9.09h10c5.36,0,9,3.57,9,9.09V32Zm0-3.17h20.93V20c0-3.89-2-6-5.92-6H94.24c-3.89,0-5.92,2.11-5.92,6Z"/><path class="cls-1" d="M156.54,28.08v-8c0-3.89-2-6-5.92-6h-9.25c-3.9,0-5.93,2.11-5.93,6v1H132V19.88c0-5.52,3.66-9.09,9-9.09h10.15c5.35,0,9,3.57,9,9.09V40.16c0,5.52-3.65,9.09-9,9.09h-10c-5.36,0-9-3.57-9-9.09V28.08Zm0,3.16H135.61v8.84c0,3.9,2,6,5.92,6h9.09c3.89,0,5.92-2.11,5.92-6Z"/><path class="cls-1" d="M177,10.79h6.57V0h3.57V10.79h11.93V14H187.16V40c0,3.89,2,6,5.93,6h5.11v3.24h-5.6c-5.36,0-9-3.57-9-9.09V14H177Z"/><path class="cls-1" d="M349.55,39.48h-5.12V63.41h-3.57V39.48h-7.55V36.32h7.55V20.49c0-3.89-2-6-5.92-6H319.61V11.24h15.82c5.35,0,9,3.57,9,9.09v16h5.12Z"/><path class="cls-1" d="M257.25,39.36v1c0,3.89-2,6-5.93,6h-9.24c-3.9,0-5.93-2.11-5.93-6V38.93a4.05,4.05,0,0,1,1-1.7l3.16-1.93c.38-.15.77-.31,1.2-.46,4.94-1.83,7.23-2.67,11.87-4.34,5-1.83,7-3.35,7-7.84V18.17c-.83-4.27-4.17-6.93-8.79-6.93h-10c-5.28,0-8.89,3.47-9,8.85,0,.08,0,.16,0,.24v4.5h3.57V20.41c0-3.9,2-6,5.93-6h9.08c3.53,0,5.51,1.75,5.85,5v2.91a4.64,4.64,0,0,1-.9,3.35l-2.44,1.49c-.55.23-1.17.46-1.91.72-4.72,1.59-6.77,2.28-11.57,4-4.56,1.68-7.61,3.5-7.61,8.14v.89c0,5.23,3.65,8.8,9,8.8h10.14a8.8,8.8,0,0,0,7.09-3.12,9.4,9.4,0,0,0,1.91-6V39.36Z"/><path class="cls-1" d="M296.72,11.24H286.57c-5.35,0-9,3.57-9,9.09v1.25h3.48v-1c0-3.89,2-6,5.93-6h9.25c3.89,0,5.92,2.11,5.92,6v8H286.31v3.16h15.84v8.84c0,3.89-2,6-5.92,6h-9.09c-3.89,0-5.92-2.11-5.92-6V35.84h-3.49v4.77c0,5.52,3.65,9.09,9,9.09h10c5.35,0,9-3.57,9-9.09V20.33C305.72,14.81,302.07,11.24,296.72,11.24Z"/><path class="cls-1" d="M213.88,49.59V44.74h4v4.85A9.74,9.74,0,0,1,217,54a5.72,5.72,0,0,1-2.42,2.45l-1-1.83a3.69,3.69,0,0,0,1.61-1.68,8.45,8.45,0,0,0,.59-3.35Z"/></g></g></svg>