<?xml version="1.0" encoding="utf-8"?>
<!-- Generator: Adobe Illustrator 26.0.1, SVG Export Plug-In . SVG Version: 6.00 Build 0)  -->
<svg version="1.1" id="Layer_1" xmlns="http://www.w3.org/2000/svg" xmlns:xlink="http://www.w3.org/1999/xlink" x="0px" y="0px"
	 viewBox="0 0 129.1 66.7" style="enable-background:new 0 0 129.1 66.7;" xml:space="preserve">
<style type="text/css">
	.st0{fill:#1D1D1B;}
</style>
<g>
	<path class="st0" d="M29.4,29.6c-0.2,1.7-0.3,3.2-0.5,4.7c-0.1,1.5-0.3,2.7-0.3,3.8c0.5,0,1-0.1,1.4-0.1c0.4,0,0.8-0.1,1.3-0.1
		l-0.9,3.7c-3.3-0.2-6.6-0.3-9.7-0.3c-3.2,0-6.4,0.1-9.6,0.3c0,0.5,0,1-0.1,1.5c-0.1,0.5-0.2,0.9-0.3,1.3L8,44.8
		c-0.2-0.9-0.4-2-0.7-3.1c-0.2-1.2-0.4-2.4-0.4-3.5L6,20.8c0-0.9-0.1-1.6-0.3-2.1c-0.2-0.6-0.4-1-0.8-1.3C4.5,17,4,16.7,3.3,16.4
		c-0.6-0.2-1.4-0.5-2.4-0.8l0.8-1.8c2.8,0.3,5.4,0.5,7.9,0.6c2.5,0.1,4.9,0.1,7.2,0.1c2.3,0,4.7-0.1,7.1-0.3
		c2.4-0.2,4.9-0.4,7.5-0.6c-0.1,0.7-0.2,1.5-0.3,2.4c-0.1,0.9-0.2,1.9-0.4,3c-0.1,1.1-0.3,2.2-0.4,3.4c-0.1,1.2-0.3,2.4-0.4,3.6
		c0.6,0,1.2,0.1,1.8,0.1c0.6,0,1.2,0,1.7,0c1.2,0,2.4-0.1,3.4-0.1c1,0,1.9-0.1,2.6-0.1V10.6c0-1.5-0.5-2.7-1.4-3.6
		c-1-0.9-2.8-1.7-5.5-2.4l0.8-1.9c2.3,0.3,4.3,0.6,6.1,0.9c1.7,0.3,3.5,0.7,5.3,1.2c-0.2,0.8-0.3,1.8-0.5,2.9
		c-0.1,1.1-0.2,2.1-0.2,3v33.1c0,1.4,0,3-0.1,4.8c-0.1,1.8-0.2,3.6-0.3,5.4c-0.1,1.8-0.3,3.6-0.4,5.2c-0.2,1.7-0.3,3.1-0.5,4.2
		l-2.7,0.3c-0.1-0.9-0.2-1.9-0.2-3.1c0-1.2-0.1-2.4-0.1-3.8c0-1.3-0.1-2.7-0.1-4.1c0-1.4,0-2.8,0-4.1V28.4c-1.6,0.1-3.2,0.2-5,0.4
		C32.5,29,30.9,29.2,29.4,29.6z M25.6,17.1C23,17,20.4,17,17.9,17.1c-2.6,0.1-5,0.2-7.2,0.4l0.5,19.4c0,0.3,0,0.7,0,1
		c0,0.4,0,0.8,0,1.2c4.7-0.1,9.3-0.3,13.7-0.6L25.6,17.1z M44.9-0.4c2.3,0.3,4.5,0.7,6.5,1.1c2,0.4,3.9,0.8,5.7,1.2
		c-0.2,0.8-0.3,1.8-0.5,2.8c-0.1,1.1-0.2,2-0.2,3v38.5c0,1.4,0,3-0.1,4.8c-0.1,1.8-0.1,3.6-0.2,5.4c-0.1,1.8-0.2,3.6-0.3,5.2
		c-0.1,1.7-0.3,3.1-0.5,4.2l-2.8,0.3c-0.1-0.9-0.2-1.9-0.2-3.1c-0.1-1.2-0.1-2.5-0.2-3.8c0-1.3-0.1-2.7-0.1-4.1
		c0-1.4-0.1-2.7-0.1-4.1V7.6c0-1.5-0.6-2.7-1.7-3.6c-1.1-0.9-3.1-1.8-6-2.5L44.9-0.4z"/>
	<path class="st0" d="M111.5,50.3c0,1.2,0,2.5-0.1,3.9c0,1.4-0.1,2.7-0.2,4.1c-0.1,1.4-0.2,2.7-0.3,3.9c-0.1,1.2-0.3,2.3-0.5,3.3
		l-3,0.5c-0.1-0.8-0.2-1.8-0.3-2.9c-0.1-1.1-0.1-2.2-0.1-3.4c0-1.2,0-2.4-0.1-3.6c0-1.2,0-2.3,0-3.3V37.3c-2.3,0-4.9,0-7.6,0.1
		c-2.8,0.1-5.4,0.1-8.1,0.2V49c0,1.2,0,2.5-0.1,3.9c0,1.4-0.1,2.7-0.2,4c-0.1,1.3-0.2,2.6-0.3,3.9c-0.1,1.2-0.3,2.3-0.5,3.3
		l-2.9,0.5c-0.1-0.8-0.2-1.8-0.2-2.9c-0.1-1.1-0.1-2.2-0.2-3.4s-0.1-2.4-0.1-3.6s0-2.3,0-3.3V37.8c-1.7,0.1-3.3,0.2-4.7,0.2
		c-1.4,0-2.5,0.1-3.2,0.1c-1.7,0.1-3.5,0.2-5.3,0.4c-1.8,0.2-3.5,0.4-5.2,0.6l-1.7-4.7c2.1,0.2,4.1,0.4,6.1,0.5
		c1.9,0.1,4,0.2,6.1,0.3c1.1,0,2.6,0.1,4.4,0.1c1.8,0,3.8,0,6,0c2.2,0,4.4-0.1,6.7-0.1c2.3-0.1,4.6-0.1,6.7-0.2
		c2.2,0,4.1-0.1,5.9-0.2c1.8-0.1,3.3-0.1,4.4-0.2c3.2-0.1,6.2-0.3,9.1-0.6c2.9-0.2,5.5-0.5,8-0.9l-0.7,4.4c-1.8-0.1-4.1-0.2-6.8-0.2
		c-2.7,0-5.6-0.1-8.7-0.1c-0.3,0-0.7,0-1,0c-0.4,0-0.8,0-1.3,0.1V50.3z M119.9,25.3c-2.9-0.1-6-0.1-9.4-0.1c-3.4,0-6.7,0-10,0.1
		c-3.3,0.1-6.4,0.2-9.4,0.3c-3,0.1-5.5,0.2-7.6,0.3c-1.2,0.1-2.1-0.3-2.7-1.2c-0.6-0.9-0.9-2-0.9-3.2V11c0-1.1-0.1-1.9-0.3-2.6
		c-0.2-0.7-0.5-1.2-1-1.7c-0.5-0.4-1.2-0.8-2.1-1.1c-0.9-0.3-2-0.6-3.3-0.9L74,2.9c0.7,0.1,1.5,0.2,2.5,0.3c1,0.1,1.9,0.2,3,0.3
		c1,0.1,2,0.2,3,0.3c1,0.1,1.8,0.2,2.5,0.4c-0.1,0.6-0.2,1.3-0.2,2.3c-0.1,1-0.1,1.9-0.1,2.7v10.7c0,1.1,0.2,1.8,0.7,2.3
		c0.4,0.5,1.3,0.8,2.7,0.8c1.7,0,4,0,6.8-0.1c2.8-0.1,5.8-0.3,8.9-0.4c3.1-0.2,6.1-0.4,9.2-0.7c3-0.3,5.6-0.6,7.8-0.9L119.9,25.3z"
		/>
</g>
</svg>
