<svg xmlns="http://www.w3.org/2000/svg" viewBox="0 0 129.13 66.72"><g id="Layer_2" data-name="Layer 2"><g id="Layer_1-2" data-name="Layer 1"><path d="M29.6,30.83c-.14,1.31-.26,2.58-.38,3.8s-.21,2.31-.3,3.26c.45-.09.88-.15,1.29-.2l1.3-.14-1.23,4.9q-4.3-.35-9.12-.34t-9.33.27c-.1.82-.23,1.67-.41,2.53l-4.31.75c-.23-.91-.46-2-.68-3.35S6,39.72,6,38.49L5,21.33a8.39,8.39,0,0,0-.31-2,2.73,2.73,0,0,0-.75-1.23,4.21,4.21,0,0,0-1.47-.83Q1.5,17,0,16.54l1.09-2.46q4.17.48,8.07.65c2.6.12,5.14.16,7.62.14s4.95-.13,7.39-.31,4.93-.39,7.48-.61q-.34,1.91-.75,5.22c-.28,2.22-.55,4.55-.82,7a19.86,19.86,0,0,0,2,.17,17.35,17.35,0,0,0,1.91,0c.64,0,1.24,0,1.78,0l1.64,0V11.14a5.07,5.07,0,0,0-.31-1.84A3.75,3.75,0,0,0,36,7.79a7.76,7.76,0,0,0-2.15-1.23,30.52,30.52,0,0,0-3.42-1.09L31.65,3q3.29.41,6.7,1.06c2.28.43,4.28.88,6,1.33-.1.41-.19.92-.28,1.51s-.17,1.19-.24,1.78-.12,1.14-.17,1.65-.07.87-.07,1.09V44c0,1.42,0,3-.1,4.82s-.16,3.62-.27,5.44-.24,3.58-.38,5.26-.27,3.1-.41,4.24l-4.51.55c-.09-.87-.16-1.91-.21-3.11s-.1-2.5-.17-3.87-.11-2.77-.13-4.2,0-2.81,0-4.14V29.74c-1.36.09-2.74.22-4.13.41A28.71,28.71,0,0,0,29.6,30.83ZM24.06,18.25c-2.46-.13-4.65-.16-6.56-.07s-3.92.23-6,.41l.41,18.67c0,.22,0,.47,0,.75a3.91,3.91,0,0,1,0,.89c1.87,0,3.76-.12,5.68-.21s3.83-.2,5.74-.34ZM43.13,0c1.1.14,2.26.32,3.49.55l3.66.68,3.45.68,2.94.62q-.14.62-.24,1.5c-.07.6-.13,1.19-.17,1.78S56.17,7,56.12,7.45s-.07.87-.07,1.09V46.42c0,1.41,0,3-.1,4.82s-.16,3.61-.27,5.43-.24,3.57-.38,5.23S55,65,54.82,66.1l-4.64.62c-.1-.87-.18-1.9-.24-3.11s-.13-2.51-.17-3.9-.1-2.8-.14-4.24-.07-2.81-.07-4.13V8.41a5,5,0,0,0-.34-1.88A4,4,0,0,0,48,5a8.19,8.19,0,0,0-2.32-1.3A28.53,28.53,0,0,0,42,2.53Z"/><path d="M111,50.59c0,1.23,0,2.53-.11,3.89s-.14,2.74-.23,4.1-.21,2.68-.35,3.93-.29,2.36-.47,3.32l-4.65.82c-.1-.77-.17-1.74-.24-2.9s-.13-2.37-.17-3.63-.08-2.52-.11-3.79,0-2.42,0-3.42V38.24l-6.53.16q-3.45.09-6.87.21V49.29c0,1.18,0,2.46-.1,3.83s-.15,2.73-.24,4.1-.21,2.66-.34,3.89-.3,2.33-.48,3.28l-4.58.82c-.09-.77-.17-1.74-.24-2.9s-.13-2.37-.17-3.62-.08-2.51-.1-3.76,0-2.38,0-3.39V38.79L81,38.91,78.27,39l-5.57.48c-2,.18-3.77.39-5.37.62l-2.32-6q3.08.34,6.6.58t6.59.38c1.14,0,2.59.07,4.34.07s3.68,0,5.78,0,4.27-.07,6.53-.14l6.49-.17c2.08,0,4-.1,5.74-.17l4.28-.17c3-.14,6.16-.35,9.33-.65s6-.62,8.44-1l-.82,5.61-3.18-.14c-1.21-.05-2.52-.08-3.93-.1s-2.87-.06-4.37-.11-3-.06-4.52-.06H111ZM119,26.39q-4.17-.13-9.22-.14t-10.05.07q-5,.06-9.47.24c-3,.11-5.48.21-7.49.31a3.69,3.69,0,0,1-3.48-1.33,5.94,5.94,0,0,1-1-3.51V11.68A8.48,8.48,0,0,0,78,9.33a3.3,3.3,0,0,0-1-1.57,5.71,5.71,0,0,0-2-1.09,25.75,25.75,0,0,0-3.35-.86l1.16-2.6c.64.09,1.51.21,2.6.34s2.24.28,3.45.41l3.49.42c1.12.13,2,.27,2.77.41-.09.54-.19,1.36-.28,2.46s-.13,2.05-.13,2.87V20.58a3,3,0,0,0,.48,1.94,2.53,2.53,0,0,0,1.91.65q1.71.07,4.2,0c1.67,0,3.48-.11,5.44-.2s4-.22,6.12-.38l6.25-.48c2.05-.15,4-.33,5.88-.51s3.51-.39,4.92-.61Z"/></g></g></svg>